<svg width="90" height="100" viewBox="0 0 90 100" fill="none" xmlns="http://www.w3.org/2000/svg">
<path d="M43.8257 73.4021L67.2219 75.5342C66.7505 76.623 66.1313 78.0776 65.4451 79.7513C63.9406 83.4208 62.0995 88.1792 60.7929 92.4546C59.8431 95.5624 57.5902 97.0334 54.6193 97.7528C51.961 98.3966 48.9699 98.3784 46.1741 98.3613C45.7305 98.3586 45.2919 98.3559 44.8602 98.3559C41.7813 98.3559 38.2842 98.3459 35.2751 97.5307C32.3246 96.7313 30.1167 95.2393 29.1781 92.4166C27.968 88.7777 26.1337 84.0357 24.6117 80.2252C23.8687 78.3653 23.1969 76.7192 22.7031 75.5195L43.8257 73.4021Z" fill="white" stroke="black" stroke-width="3.264"/>
<path fill-rule="evenodd" clip-rule="evenodd" d="M25.6765 11.0747C25.6765 7.75266 6.9928 0.288775 4.31555 2.76961C1.6383 5.25044 1.02925 19.3798 5.9587 29.3459C14.1745 31.0069 25.6765 14.3967 25.6765 11.0747Z" stroke="black" stroke-width="3.264"/>
<path fill-rule="evenodd" clip-rule="evenodd" d="M20.3528 17.8515C20.3528 15.4537 5.51215 9.50097 3.92127 10.3051C2.33039 11.1091 2.27812 20.2712 6.12077 29.3783C12.0508 30.5772 20.3528 20.2493 20.3528 17.8515Z" stroke="black" stroke-width="3.264"/>
<path fill-rule="evenodd" clip-rule="evenodd" d="M64.3235 11.0747C64.3235 7.75266 83.0072 0.288775 85.6845 2.76961C88.3617 5.25044 88.9708 19.3798 84.0413 29.3459C75.8255 31.0069 64.3235 14.3967 64.3235 11.0747Z" stroke="black" stroke-width="3.264"/>
<path fill-rule="evenodd" clip-rule="evenodd" d="M69.6472 17.8515C69.6472 15.4537 84.4879 9.50097 86.0787 10.3051C87.6696 11.1091 87.7219 20.2712 83.8792 29.3783C77.9492 30.5772 69.6472 20.2493 69.6472 17.8515Z" stroke="black" stroke-width="3.264"/>
<path fill-rule="evenodd" clip-rule="evenodd" d="M26.9254 10.3052C33.498 10.3052 56.5364 10.3052 63.0747 10.3052C69.6131 10.3052 84.4357 28.5764 84.4357 28.5764C84.4357 28.5764 79.5062 53.4916 79.5062 63.4577C79.5062 73.4238 64.7179 71.7628 61.4316 83.3899C51.5727 85.0509 45.0001 78.4069 45.0001 78.4069C45.0001 78.4069 40.0706 85.0509 30.2117 83.3899C25.2823 71.7628 10.4939 73.4238 10.4939 63.4577C10.4939 53.4916 5.56445 28.5764 5.56445 28.5764C5.56445 28.5764 20.3528 10.3052 26.9254 10.3052Z" fill="white" stroke="black" stroke-width="3.264"/>
<path fill-rule="evenodd" clip-rule="evenodd" d="M43.5212 26.9153H40.0706L46.4788 16.9492V24.4238H49.9294L43.5212 34.3899V26.9153Z" fill="#F8D43F"/>
<path d="M39.1618 64.1685C39.4545 63.2807 40.5392 62.5832 42.2216 62.158C42.9843 61.9653 43.7287 61.8661 44.2894 61.8161C44.5673 61.7913 44.7938 61.7791 44.9473 61.7731C45.0239 61.7702 45.0819 61.7688 45.1184 61.7681L45.1567 61.7675L45.1621 61.7675L45.1614 61.7675C45.161 61.7675 45.1606 61.7675 45.1606 60.1355C45.1606 61.7675 45.1602 61.7675 45.1598 61.7675L45.1645 61.7675L45.2028 61.7681C45.2394 61.7688 45.2974 61.7702 45.3739 61.7731C45.5274 61.7791 45.754 61.7913 46.0318 61.8161C46.5925 61.8661 47.337 61.9653 48.0996 62.158C49.7821 62.5832 50.8667 63.2807 51.1595 64.1685C51.2943 64.5775 51.285 65.2052 50.9765 66.0519C50.6738 66.8823 50.1307 67.7842 49.4256 68.6265C48.7225 69.4665 47.9044 70.192 47.1039 70.6959C46.279 71.2151 45.605 71.4172 45.1606 71.4172C44.7163 71.4172 44.0422 71.2151 43.2173 70.6959C42.4168 70.192 41.5988 69.4665 40.8957 68.6265C40.1906 67.7842 39.6474 66.8823 39.3448 66.0519C39.0362 65.2052 39.0269 64.5775 39.1618 64.1685Z" stroke="black" stroke-width="3.264"/>
<path d="M25.2776 31.7114C25.2776 31.7114 28.9542 31.9161 31.8002 33.5593C34.6462 35.2024 36.6617 38.284 36.6617 38.284" stroke="black" stroke-width="3.264" stroke-linecap="round"/>
<path d="M54.0417 38.2842C54.0417 38.2842 56.0572 35.2026 58.9032 33.5594C61.7492 31.9162 65.4258 31.7116 65.4258 31.7116" stroke="black" stroke-width="3.264" stroke-linecap="round"/>
<path d="M26.9252 40.2034C30.2115 40.2034 33.8273 47.5092 31.8547 53.4915C30.2115 58.4746 23.6389 56.8135 23.6389 66.7796C23.6389 76.7457 27.4591 78.5208 30.2115 83.3898" stroke="black" stroke-width="3.264"/>
<path d="M63.6351 40.2034C60.3488 40.2034 56.733 47.5092 58.7056 53.4915C60.3488 58.4746 66.9214 56.8135 66.9214 66.7796C66.9214 76.7457 63.1012 78.5208 60.3488 83.3898" stroke="black" stroke-width="3.264"/>
<path fill-rule="evenodd" clip-rule="evenodd" d="M18.6295 50.6438C20.6711 53.0769 23.4655 54.0933 24.871 52.914C26.2765 51.7347 25.7608 48.8062 23.7192 46.3731C21.6775 43.94 18.8831 42.9236 17.4776 44.1029C16.0722 45.2822 16.5879 48.2107 18.6295 50.6438Z" stroke="black" stroke-width="3.264"/>
<path fill-rule="evenodd" clip-rule="evenodd" d="M71.3706 50.6437C73.4122 48.2106 73.9279 45.2822 72.5224 44.1028C71.117 42.9235 68.3225 43.9399 66.2809 46.373C64.2393 48.8061 63.7236 51.7346 65.1291 52.9139C66.5345 54.0933 69.3289 53.0769 71.3706 50.6437Z" stroke="black" stroke-width="3.264"/>
<path d="M45.0001 78.4068V71.7627" stroke="black" stroke-width="3.264"/>
<path fill-rule="evenodd" clip-rule="evenodd" d="M58.1451 63.4575C59.0526 63.4575 59.7883 62.7139 59.7883 61.7965C59.7883 60.8792 59.0526 60.1355 58.1451 60.1355C57.2376 60.1355 56.502 60.8792 56.502 61.7965C56.502 62.7139 57.2376 63.4575 58.1451 63.4575Z" fill="black"/>
<path fill-rule="evenodd" clip-rule="evenodd" d="M61.4315 70.1018C62.339 70.1018 63.0746 69.3582 63.0746 68.4408C63.0746 67.5234 62.339 66.7798 61.4315 66.7798C60.524 66.7798 59.7883 67.5234 59.7883 68.4408C59.7883 69.3582 60.524 70.1018 61.4315 70.1018Z" fill="black"/>
<path fill-rule="evenodd" clip-rule="evenodd" d="M56.502 75.0847C57.4095 75.0847 58.1452 74.3411 58.1452 73.4237C58.1452 72.5064 57.4095 71.7627 56.502 71.7627C55.5946 71.7627 54.8589 72.5064 54.8589 73.4237C54.8589 74.3411 55.5946 75.0847 56.502 75.0847Z" fill="black"/>
<path fill-rule="evenodd" clip-rule="evenodd" d="M33.498 63.4575C32.5905 63.4575 31.8548 62.7139 31.8548 61.7965C31.8548 60.8792 32.5905 60.1355 33.498 60.1355C34.4054 60.1355 35.1411 60.8792 35.1411 61.7965C35.1411 62.7139 34.4054 63.4575 33.498 63.4575Z" fill="black"/>
<path fill-rule="evenodd" clip-rule="evenodd" d="M30.2116 70.1018C29.3041 70.1018 28.5684 69.3582 28.5684 68.4408C28.5684 67.5234 29.3041 66.7798 30.2116 66.7798C31.1191 66.7798 31.8547 67.5234 31.8547 68.4408C31.8547 69.3582 31.1191 70.1018 30.2116 70.1018Z" fill="black"/>
<path fill-rule="evenodd" clip-rule="evenodd" d="M35.141 75.0847C34.2335 75.0847 33.4979 74.3411 33.4979 73.4237C33.4979 72.5064 34.2335 71.7627 35.141 71.7627C36.0485 71.7627 36.7842 72.5064 36.7842 73.4237C36.7842 74.3411 36.0485 75.0847 35.141 75.0847Z" fill="black"/>
<path fill-rule="evenodd" clip-rule="evenodd" d="M36.9257 90.0339C36.9257 90.0339 40.9878 95.1096 40.212 96.678C39.4362 98.2465 34.4769 98.3712 33.6394 96.678C32.8019 94.9848 36.9257 90.0339 36.9257 90.0339Z" fill="black"/>
<path fill-rule="evenodd" clip-rule="evenodd" d="M34.4588 91.2576C34.4588 91.2576 37.5448 86.182 36.9555 84.6135C36.3661 83.045 32.5984 82.9203 31.9621 84.6135C31.3259 86.3067 34.4588 91.2576 34.4588 91.2576Z" fill="black"/>
<path fill-rule="evenodd" clip-rule="evenodd" d="M53.3571 90.0339C53.3571 90.0339 57.4192 95.1096 56.6434 96.678C55.8676 98.2465 50.9083 98.3712 50.0708 96.678C49.2333 94.9848 53.3571 90.0339 53.3571 90.0339Z" fill="black"/>
<path fill-rule="evenodd" clip-rule="evenodd" d="M55.8199 91.2576C55.8199 91.2576 58.9059 86.182 58.3165 84.6135C57.7272 83.045 53.9595 82.9203 53.3232 84.6135C52.687 86.3067 55.8199 91.2576 55.8199 91.2576Z" fill="black"/>
<path fill-rule="evenodd" clip-rule="evenodd" d="M41.7138 93.356H49.9295L52.375 94.978V96.678H38.4275L38.4275 95.017L41.7138 93.356Z" fill="black"/>
<path d="M35.1412 10.3052V16.9492" stroke="black" stroke-width="3.264" stroke-linecap="round"/>
<path d="M54.859 10.3052V16.9492" stroke="black" stroke-width="3.264" stroke-linecap="round"/>
</svg>
